<svg id="Graphic_elements" data-name="Graphic elements" xmlns="http://www.w3.org/2000/svg" viewBox="0 0 1200 1200"><defs><style>.cls-1{fill:#f9f9f9;}.cls-2{fill:#1a1a1a;}</style></defs><g id="layer1"><path id="path4239" class="cls-1" d="M542.18,1119.14c-29.39-16.78-66.09-38.7-81.55-48.7l-28.11-18.18L432.1,1006c-.23-25.44-1.55-61.68-3-80.54l-2.53-34.28L367.78,925c-32.36,18.61-66.09,36.3-74.94,39.32-16,5.44-16.32,5.35-45.3-11.83-16.06-9.52-50.86-30-77.34-45.47l-48.14-28.16V329.24l21-13.45c11.57-7.4,49-29.8,83.1-49.78l62.07-36.34,20.06,9.93c11,5.46,42.07,22.46,69,37.77s49.25,27.45,49.67,27c2-2.28,5.25-68.61,5.4-110.92l.17-47.16,82.9-48.13L598.31,50l75.28,41.93c182.62,101.7,268.58,150.4,334.13,189.3l70.22,41.67-2.38,27.61c-1.32,15.19-2.56,58.08-2.77,95.33l-.38,67.71-43.87,24.84c-50.1,28.37-92.68,54.92-92.87,57.92-.16,2.59,47.29,31.64,70.61,43.22,9.73,4.83,28.77,16,42.31,24.88l24.63,16.1-1,97.67-1.05,97.67-64.84,37.57c-35.66,20.66-86.06,49.92-112,65s-88.72,51.33-139.51,80.52S648,1120.64,630.43,1131.18s-32.62,19-33.4,18.82-25.47-14.08-54.85-30.86Z"/><path id="path4237" class="cls-2" d="M586.88,1045.73c1.56-49.39.93-75.39-1.93-80-2.34-3.73-27.42-18.84-55.74-33.57s-56.19-30-61.93-34S455.76,891,454.42,891s-1.94,34.73-1.35,77.17l1.06,77.17L517,1081.7c34.58,20,63.93,36.57,65.22,36.79s3.38-32.52,4.65-72.76Z"/><path id="path4235" class="cls-2" d="M722.59,1055.33c23.1-13.32,79.14-46.52,124.53-73.76s110.51-65.4,144.72-84.79L1054,861.53l-1.11-77.63c-.61-42.7-1.49-77.63-2-77.63s-33.12,18.57-72.57,41.26-73.19,41.27-75,41.27-3.44-68.53-3.67-152.29-1.56-162.37-3-174.71l-2.52-22.44-63.37,38.16-63.37,38.15-2.95,179.6-3,179.6L685.5,920.79l-76.14,45.93v151.54L645,1098.91c19.59-10.64,54.52-30.25,77.62-43.58Z"/><path id="path4233" class="cls-2" d="M330,925.79c16.39-8.94,42.65-25.1,58.35-35.89l28.54-19.63L359,837.39c-31.85-18.08-60.36-32.87-63.36-32.87-4.5,0-5.21,12-4.05,68.75.78,37.88,3,68.76,5,68.77S313.61,934.74,330,925.79Z"/><path id="path4231" class="cls-2" d="M271.39,853.87c0-46.34,1.43-85.14,3.18-86.22,3.08-1.91,58.15,28.19,224.69,122.79,44.27,25.15,81.89,46.33,83.59,47.06s2.62-32.85,2-74.63l-1.07-76-72.7-42c-123.76-71.46-136.76-79-188-109.59l-49.77-29.68-2-90-2-90L236,406.24c-18.37-10.64-46.45-27.07-62.39-36.5S144,352.58,143.17,352.58c-2.49,0-.64,464,2,492.67l2.46,27,58.9,32.95c32.39,18.12,60.25,33,61.9,33s3-37.92,3-84.26Z"/><path id="path4229" class="cls-2" d="M691.07,892.67,739,865.43l.08-57c0-31.35,1-63.18,2.14-70.74,4.2-28-.48-27.16-67.49,12.51l-62.38,36.92L610.26,863l-1.07,75.88,17-9.49c9.34-5.23,38.54-21.76,64.89-36.74Z"/><path id="path4227" class="cls-2" d="M664.51,727.57c34.88-20.71,62.58-38.5,61.54-39.54-4.67-4.67-78.27-46.14-104.76-59L592,614.72l-15.86,9C511,660.77,467.9,687.89,468,691.81c.12,4.68,119.67,72.87,128.38,73.22C599,765.13,629.62,748.27,664.51,727.57Z"/><path id="path4225" class="cls-2" d="M966.21,731.14c21-12.26,46.49-26.85,56.74-32.42s18.6-11,18.55-12.1c-.17-4.3-96.54-59.36-113.1-64.62-8.32-2.64-8.58-1.8-8.58,28.38,0,35.93,4.36,103,6.69,103,.88,0,18.74-10,39.7-22.29Z"/><path id="path4223" class="cls-2" d="M428.59,594.9v-76l-25.9-16.62c-35.24-22.63-103.63-60.78-105.54-58.88-.85.86-2.19,34.77-3,75.36l-1.44,73.82,39.44,24.34c32.6,20.13,91.68,53.48,95.44,53.88.54.05,1-34.1,1-75.9Z"/><path id="path4221" class="cls-2" d="M546.48,618.88l37.34-21.11,1.06-81.47,1.06-81.48-12.85,6.5c-16.87,8.52-113.55,68.34-120.15,74.33-4.06,3.69-4.55,20.26-2.36,79.9l2.78,75.24,27.89-15.4c15.35-8.47,44.7-24.9,65.23-36.51Z"/><path id="path4219" class="cls-2" d="M738.15,511.62c-5.26-4.74-124-72.58-127-72.58-1,0-1.72,34.92-1.68,77.61l.09,77.62,65.74,35.66L741,665.58l1.07-74.73c.81-56.61-.14-75.82-3.93-79.23Z"/><path id="path4217" class="cls-2" d="M997.44,533.23l56-33V348.49l-16.7,8.39c-9.19,4.62-38.31,21-64.71,36.43l-48,28-.13,78.07-.14,78.07,8.84-5.64c4.87-3.1,34-20.48,64.85-38.62Z"/><path id="path4215" class="cls-2" d="M596.89,402.44,750.75,312.8l79.42,45.13c92.51,52.56,72.12,52.62,157.44-.44l54-33.61-59.92-34.12C720.44,141,620.05,84.48,608,79.44l-14-5.86-46.34,27.94c-25.48,15.36-53.14,32.91-61.46,39-13.91,10.18-14.55,11.44-7.86,15.54,4,2.46,35.42,20.71,69.83,40.56s62.7,37.62,62.88,39.48S543.48,280.22,460.56,330c-100.86,60.56-149,91.53-145.4,93.56,2.94,1.67,31.88,18.2,64.3,36.74s60,33.28,61.27,32.75,71.54-41.31,156.16-90.62Z"/><path id="path4213" class="cls-2" d="M783.73,479.64c53.12-31.79,96.67-61.21,94.88-64.11s-34.1-22.6-102-62.35l-27.32-16-14,8.48c-7.67,4.67-36.63,22.48-64.36,39.58l-50.41,31.1,13.08,8c32.21,19.82,119.51,69.29,122.6,69.46,1.88.11,14.26-6.29,27.51-14.22Z"/><path id="path4211" class="cls-2" d="M357.69,366.12c18.46-11.47,39.42-25.23,46.59-30.58l13-9.71-38.57-22.7c-21.21-12.49-51.27-28.58-66.8-35.75l-28.23-13-20.89,12.52c-11.49,6.88-40,24.43-63.45,39-41.78,26-42.4,26.59-33.41,32.28,5,3.19,33.79,20,63.9,37.35L284.58,407l19.78-10c10.87-5.51,34.87-19.41,53.33-30.88Z"/><path id="path3347" class="cls-2" d="M522,268.12c28.69-16.84,51.68-31,51.09-31.5-2.73-2.21-117.52-68.74-118.61-68.74-3.9,0-5.82,48.09-3.64,91.42,2.5,49.76,2.59,50.12,10.76,44.8,4.53-2.94,31.71-19.13,60.4-36Z"/></g></svg>